<svg width="81" height="31" viewBox="0 0 81 31" fill="none" xmlns="http://www.w3.org/2000/svg">
<path d="M14.4881 16.7934C14.4881 15.3325 13.427 14.1437 12.1228 14.1437C10.8188 14.1437 9.75775 15.3325 9.75775 16.7934C9.75775 18.2548 10.8188 19.4433 12.1228 19.4433C13.427 19.4433 14.4881 18.2548 14.4881 16.7934ZM18.002 3H5.99795C2.69068 3 0 6.01473 0 9.72022V11.5927H8.82599C9.7573 10.8494 10.8947 10.4103 12.1228 10.4103C13.3509 10.4103 14.4885 10.8494 15.4199 11.5927H24V9.72022C24 6.0147 21.3093 3 18.002 3ZM20.4312 9.39145C20.4312 9.8021 20.1314 10.1381 19.7647 10.1381H17.7055C17.3389 10.1381 17.0391 9.8021 17.0391 9.39145V7.08417C17.0391 6.67354 17.3389 6.33747 17.7055 6.33747H19.7647C20.1313 6.33747 20.4312 6.67349 20.4312 7.08417V9.39145ZM17.8202 16.7934C17.8202 20.3135 15.2643 23.1767 12.1228 23.1767C8.98127 23.1767 6.42552 20.3135 6.42552 16.7934C6.42552 15.8244 6.62034 14.9053 6.96678 14.0816H0V23.2798C0 26.9855 2.69068 30 5.99795 30H18.0021C21.3093 30 24 26.9855 24 23.2798V14.0816H17.279C17.6254 14.9053 17.8202 15.8244 17.8202 16.7934Z" fill="white"/>
<path d="M81 9V14C81 14.2652 80.8987 14.5196 80.7184 14.7071C80.538 14.8946 80.2935 15 80.0385 15C78.0298 15.0049 76.0501 14.5026 74.2692 13.5363V18.5C74.2692 21.0196 73.3068 23.4359 71.5938 25.2175C69.8807 26.9991 67.5573 28 65.1346 28C62.712 28 60.3885 26.9991 58.6755 25.2175C56.9624 23.4359 56 21.0196 56 18.5C56 13.8875 59.2344 9.81 63.524 9.015C63.6624 8.98942 63.8045 8.9957 63.9403 9.0334C64.0761 9.07111 64.2023 9.13931 64.31 9.23322C64.4177 9.32713 64.5043 9.44445 64.5637 9.57693C64.6232 9.70941 64.6539 9.85382 64.6538 10V15.3363C64.6539 15.5255 64.6023 15.7109 64.5051 15.8709C64.4079 16.0309 64.269 16.1589 64.1046 16.24C63.7159 16.4317 63.3838 16.7283 63.143 17.099C62.9021 17.4696 62.7613 17.9007 62.7352 18.3472C62.7091 18.7938 62.7987 19.2394 62.9946 19.6376C63.1906 20.0359 63.4857 20.3722 63.8492 20.6114C64.2126 20.8506 64.6312 20.984 65.0611 20.9977C65.4911 21.0114 65.9167 20.9048 66.2935 20.6891C66.6704 20.4735 66.9847 20.1566 67.2037 19.7715C67.4226 19.3865 67.5383 18.9474 67.5385 18.5V2C67.5385 1.73478 67.6398 1.48043 67.8201 1.29289C68.0004 1.10536 68.245 1 68.5 1H73.3077C73.5627 1 73.8073 1.10536 73.9876 1.29289C74.1679 1.48043 74.2692 1.73478 74.2692 2C74.2708 3.59079 74.8792 5.11595 75.9608 6.24081C77.0424 7.36567 78.5089 7.99835 80.0385 8C80.2935 8 80.538 8.10536 80.7184 8.29289C80.8987 8.48043 81 8.73478 81 9Z" fill="white"/>
<path d="M41.3333 17.825H44.6667L46 11.625H41.3333V8.525C41.3333 6.9285 41.3333 5.425 44 5.425H46V0.217C45.5653 0.15035 43.924 0 42.1907 0C38.5707 0 36 2.56835 36 7.285V11.625H32V17.825H36V31H41.3333V17.825Z" fill="white"/>
</svg>
